<svg width="25" height="25" viewBox="0 0 25 25" fill="none" xmlns="http://www.w3.org/2000/svg">
<path d="M12.4999 22.9167C11.0763 22.9167 9.73082 22.6431 8.46346 22.0958C7.1961 21.5493 6.0895 20.8028 5.14367 19.8563C4.19714 18.9104 3.45061 17.8038 2.90409 16.5365C2.35686 15.2691 2.08325 13.9236 2.08325 12.5C2.08325 11.059 2.35686 9.70938 2.90409 8.45104C3.45061 7.19201 4.19714 6.08958 5.14367 5.14375C6.0895 4.19722 7.1961 3.45035 8.46346 2.90312C9.73082 2.3566 11.0763 2.08333 12.4999 2.08333C13.9409 2.08333 15.2905 2.3566 16.5489 2.90312C17.8079 3.45035 18.9103 4.19722 19.8562 5.14375C20.8027 6.08958 21.5492 7.19201 22.0958 8.45104C22.643 9.70938 22.9166 11.059 22.9166 12.5V14.0104C22.9166 15.0347 22.5652 15.9069 21.8624 16.6271C21.1589 17.3479 20.2951 17.7083 19.2708 17.7083C18.6458 17.7083 18.0642 17.5694 17.526 17.2917C16.9878 17.0139 16.5451 16.6493 16.1978 16.1979C15.7291 16.6667 15.178 17.0358 14.5447 17.3052C13.9107 17.574 13.2291 17.7083 12.4999 17.7083C11.0589 17.7083 9.83082 17.2003 8.81554 16.1844C7.79957 15.1691 7.29159 13.941 7.29159 12.5C7.29159 11.059 7.79957 9.83056 8.81554 8.81458C9.83082 7.79931 11.0589 7.29167 12.4999 7.29167C13.9409 7.29167 15.1694 7.79931 16.1853 8.81458C17.2006 9.83056 17.7083 11.059 17.7083 12.5V14.0104C17.7083 14.5139 17.8645 14.9087 18.177 15.1948C18.4895 15.4816 18.8541 15.625 19.2708 15.625C19.6874 15.625 20.052 15.4816 20.3645 15.1948C20.677 14.9087 20.8333 14.5139 20.8333 14.0104V12.5C20.8333 10.2257 20.0128 8.26806 18.3718 6.62708C16.7315 4.98681 14.7742 4.16667 12.4999 4.16667C10.2256 4.16667 8.26797 4.98681 6.627 6.62708C4.98672 8.26806 4.16659 10.2257 4.16659 12.5C4.16659 14.7743 4.98672 16.7316 6.627 18.3719C8.26797 20.0128 10.2256 20.8333 12.4999 20.8333H16.6666C16.9617 20.8333 17.2089 20.9333 17.4083 21.1333C17.6083 21.3326 17.7083 21.5799 17.7083 21.875C17.7083 22.1701 17.6083 22.4174 17.4083 22.6167C17.2089 22.8167 16.9617 22.9167 16.6666 22.9167H12.4999ZM12.4999 15.625C13.368 15.625 14.1058 15.3212 14.7135 14.7135C15.3211 14.1059 15.6249 13.3681 15.6249 12.5C15.6249 11.6319 15.3211 10.8941 14.7135 10.2865C14.1058 9.67882 13.368 9.375 12.4999 9.375C11.6319 9.375 10.894 9.67882 10.2864 10.2865C9.67874 10.8941 9.37492 11.6319 9.37492 12.5C9.37492 13.3681 9.67874 14.1059 10.2864 14.7135C10.894 15.3212 11.6319 15.625 12.4999 15.625Z" fill="#8C8C8C"/>
</svg>
