<svg width="20" height="20" viewBox="0 0 20 20" fill="none" xmlns="http://www.w3.org/2000/svg">
<path d="M9.16675 16.6667C8.93064 16.6667 8.73286 16.5867 8.57342 16.4267C8.41342 16.2672 8.33342 16.0694 8.33342 15.8333V10.8333L3.50009 4.66666C3.29175 4.38888 3.26064 4.09722 3.40675 3.79166C3.55231 3.48611 3.80564 3.33333 4.16675 3.33333H15.8334C16.1945 3.33333 16.4481 3.48611 16.5943 3.79166C16.7398 4.09722 16.7084 4.38888 16.5001 4.66666L11.6668 10.8333V15.8333C11.6668 16.0694 11.587 16.2672 11.4276 16.4267C11.2676 16.5867 11.0695 16.6667 10.8334 16.6667H9.16675Z" fill="#F5F5F5"/>
</svg>
