<svg width="25" height="25" viewBox="0 0 25 25" fill="none" xmlns="http://www.w3.org/2000/svg">
<path d="M16.4063 1.5625C15.3083 1.56225 14.2255 1.81919 13.2447 2.31274C12.2639 2.80629 11.4124 3.52272 10.7583 4.40462C10.1043 5.28652 9.66589 6.30937 9.4783 7.3912C9.29072 8.47303 9.35915 9.58376 9.67813 10.6344L1.5625 18.75V23.4375H6.25L14.3656 15.3219C15.3327 15.6154 16.3518 15.697 17.3533 15.5612C18.3548 15.4253 19.3152 15.0751 20.1691 14.5344C21.0231 13.9938 21.7504 13.2754 22.3016 12.4282C22.8527 11.581 23.2148 10.625 23.3631 9.62526C23.5113 8.62551 23.4423 7.60555 23.1608 6.63488C22.8792 5.66421 22.3917 4.76565 21.7314 4.00044C21.0712 3.23523 20.2537 2.62135 19.3347 2.20063C18.4158 1.77992 17.4169 1.56227 16.4063 1.5625ZM16.4063 14.0625C15.8684 14.0622 15.3335 13.9827 14.8188 13.8266L13.9227 13.5547L13.2609 14.2164L10.7758 16.7016L9.69844 15.625L8.59375 16.7297L9.67109 17.807L8.43203 19.0461L7.35469 17.9688L6.25 19.0734L7.32734 20.1508L5.60313 21.875H3.125V19.3969L10.7828 11.7391L11.4453 11.0773L11.1734 10.1812C10.8395 9.08046 10.8612 7.90241 11.2354 6.81466C11.6097 5.72691 12.3173 4.78487 13.2578 4.12252C14.1983 3.46018 15.3237 3.11126 16.474 3.12541C17.6242 3.13957 18.7407 3.51606 19.6646 4.20134C20.5885 4.88663 21.2728 5.8458 21.6202 6.94242C21.9675 8.03905 21.9602 9.21728 21.5993 10.3095C21.2384 11.4018 20.5423 12.3524 19.61 13.0262C18.6776 13.7 17.5566 14.0626 16.4063 14.0625Z" fill="#8C8C8C"/>
<path d="M17.1875 9.375C18.0504 9.375 18.75 8.67545 18.75 7.8125C18.75 6.94956 18.0504 6.25 17.1875 6.25C16.3246 6.25 15.625 6.94956 15.625 7.8125C15.625 8.67545 16.3246 9.375 17.1875 9.375Z" fill="#8C8C8C"/>
</svg>
