<svg width="184" height="149" viewBox="0 0 184 149" fill="none" xmlns="http://www.w3.org/2000/svg">
<path d="M6.17391 120L5.36843 118.323C1.11303 109.462 3.86808 98.8245 11.8895 93.1435V93.1435C14.0207 91.6341 16.5677 90.8235 19.1792 90.8235H30.6957L25.5935 79.1881C23.6262 74.7018 23.5164 69.6189 25.288 65.0518V65.0518C28.5477 56.6485 36.6351 51.1111 45.6484 51.1111H49.5671C52.7613 51.1111 55.9277 51.7039 58.9057 52.8592L73.2 58.4052L69.278 46.7391C67.5714 41.6626 67.403 36.195 68.7939 31.0231L69.8298 27.1714C71.9945 19.1229 77.1514 12.2051 84.2465 7.83202V7.83202C95.8807 0.661295 110.678 1.15582 121.808 9.0873L122.85 9.83025C127.267 12.978 130.747 17.2654 132.919 22.2353L134.077 24.8838C138.034 33.9389 138.482 44.1423 135.333 53.5093L133.687 58.4052V58.4052C143.761 53.9102 155.488 55.2891 164.245 61.9984L167.28 64.3237C178.593 72.9914 183.51 87.6598 179.707 101.395L174.557 120" stroke="#1E90FF" stroke-width="5"/>
<path d="M94.7678 74.2322C93.7915 73.2559 92.2085 73.2559 91.2322 74.2322L75.3223 90.1421C74.346 91.1184 74.346 92.7014 75.3223 93.6777C76.2986 94.654 77.8816 94.654 78.8579 93.6777L93 79.5355L107.142 93.6777C108.118 94.654 109.701 94.654 110.678 93.6777C111.654 92.7014 111.654 91.1184 110.678 90.1421L94.7678 74.2322ZM90.5 146C90.5 147.381 91.6193 148.5 93 148.5C94.3807 148.5 95.5 147.381 95.5 146H90.5ZM90.5 76V146H95.5V76H90.5Z" fill="#1E90FF"/>
</svg>
